PathFileType	4	(X/Y/Z)	D:\TRACE\spot_10-12-23\spot_arm_motion_2_1-platform.trc
DataRate	CameraRate	NumFrames	NumMarkers	Units	OrigDataRate	OrigDataStartFrame	OrigNumFrames
100.00	100.00	      24	5	mm	100.00	5251	      7000
Frame#	Time	Left_Front			Right_Front			Left_Aft			Right_Aft			Post			
		X1	Y1	Z1	X2	Y2	Z2	X3	Y3	Z3	X4	Y4	Z4	X5	Y5	Z5	

5251	52.500	-758.95679	-2.80281	-643.57703	813.66656	2.21640	-636.86322	-675.94415	11.19202	494.04630	741.44812	17.16363	580.30933	1.42516	656.70203	-940.07043	
5252	52.510	-757.98120	-1.13512	-643.34802	814.70697	3.59301	-636.30664	-674.93317	10.20823	494.36496	742.43042	15.87721	580.62683	24.88838	733.20850	-969.91205	
5253	52.520	-756.56793	0.12449	-643.09851	816.06079	5.30649	-636.02820	-673.82416	9.16966	495.12155	743.63580	14.80438	581.17633	26.07097	735.64368	-968.10211	
5254	52.530	-755.64032	2.05169	-642.70428	816.75769	6.78541	-635.73779	-672.51764	7.95502	495.50836	744.63733	13.50537	581.42804	26.99471	737.88391	-965.87640	
5255	52.540	-754.68945	3.52715	-642.17554	817.96960	8.27154	-635.36377	-671.76831	7.04203	495.59967	745.58618	12.22131	581.84393	28.07268	740.12274	-963.70697	
5256	52.550	-753.73315	5.00165	-641.80640	819.16241	10.07862	-634.91260	-670.59888	5.84092	496.16544	746.76398	10.83482	582.08228	29.12516	742.44257	-961.48828	
5257	52.560	-752.64240	6.68973	-641.46838	820.11938	11.56403	-634.42767	-669.80225	4.87404	496.33173	747.66687	9.62050	582.55743	30.13662	745.20197	-959.25494	
5258	52.570	-751.47705	8.19219	-641.00244	820.98541	13.11338	-634.10950	-668.74243	3.60027	496.70959	748.93909	8.24940	582.98401	31.16303	747.53973	-956.93707	
5259	52.580	-750.63440	10.19149	-640.81409	822.30536	14.85190	-633.78833	-667.56757	2.56478	497.10315	749.75482	7.04341	583.42365	32.11526	749.68652	-954.64105	
5260	52.590	-749.54108	11.44335	-640.39624	822.90686	16.08487	-633.58368	-666.68738	1.76170	497.39868	750.78632	5.69626	583.74615	32.98344	751.92999	-952.41504	
5261	52.600	-748.61652	12.91925	-639.86212	823.95496	17.96347	-633.15759	-665.79327	0.43715	497.80264	751.75635	4.53272	584.10645	34.14902	754.27612	-950.19971	
5262	52.610	-747.73468	14.60383	-639.47614	824.97705	19.41253	-632.53168	-664.68292	-0.64389	498.29828	752.64978	3.20040	584.28760	35.00091	756.63043	-947.85938	
5263	52.620	-746.57861	16.09334	-639.05151	825.79236	21.04204	-632.30981	-663.78467	-1.68889	498.70682	753.75140	2.02271	584.70728	35.88253	759.04089	-945.85156	
5264	52.630	-745.84381	17.94152	-638.79651	826.82672	22.71775	-631.83765	-662.86743	-2.61941	498.93448	754.63898	0.60703	585.02051	36.84719	761.38068	-943.79150	
5265	52.640	-744.87115	19.39606	-638.56281	827.84326	23.98445	-631.46863	-661.93604	-3.73723	499.26489	755.50458	-0.55896	585.47571	37.81885	763.60376	-941.67383	
5266	52.650	-743.95966	20.54935	-637.85107	828.43396	25.64006	-631.18524	-660.98871	-4.87045	499.63324	756.56750	-1.81591	585.81329	38.73153	765.70099	-939.66705	
5267	52.660	-743.02484	22.30379	-637.45428	829.40002	27.10133	-630.76587	-660.00476	-5.85268	499.96646	757.25439	-3.04879	586.19037	39.52549	767.77460	-937.81274	
5268	52.670	-742.21075	23.91628	-637.06104	830.45776	28.69510	-630.37238	-659.27087	-7.06935	500.30371	758.20160	-4.43084	586.59064	40.24352	770.11719	-935.80438	
5269	52.680	-741.46960	25.44370	-636.71509	831.31067	30.36943	-629.79150	-658.54022	-8.02663	500.55411	759.10596	-5.52757	586.92493	41.17589	772.29236	-933.76514	
5270	52.690	-740.63898	27.01594	-636.39288	831.98328	31.61325	-629.41321	-657.62506	-9.13237	500.87793	759.80780	-6.82769	587.15338	42.24220	774.33832	-931.70172	
5271	52.700	-739.73114	28.33061	-635.88574	832.71625	33.29930	-629.14075	-656.80292	-10.13681	501.46533	760.45483	-8.12723	587.47437	42.88767	776.47211	-929.66571	
5272	52.710	-738.95367	29.93351	-635.46222	833.52710	34.69621	-628.75775	-655.96570	-11.14102	501.83032	761.45422	-9.37161	587.78735	43.50901	778.66022	-927.57440	
5273	52.720	-738.25031	31.34871	-634.93909	834.41888	36.24411	-628.30048	-655.17407	-12.53564	502.13489	762.15619	-10.51049	588.04626	44.40387	780.86469	-925.37628	
5274	52.730	-737.67358	32.84842	-634.60425	835.02942	37.45565	-627.71503	-654.53650	-13.21302	502.46259	762.87109	-11.80051	588.40753	44.94271	783.11066	-923.17419	
